# xmcd
#
# Track frame offsets:
#	150
#	20762
#	30362
#	60587
#
# Disc length: 866
#
# Revision: 0
# Processed by: cddbd v1.5.2PL0 Copyright (c) Steve Scherf et al.
# Submitted via: Broken X Disk Manager 4.03.2263
#
DISCID=28036004
DTITLE=Patent Ochsner - Jänner
DYEAR=1994
DGENRE=
TTITLE0=Jänner
TTITLE1=Kohl Yu Rolf
TTITLE2=Ämmital (Begattigversion)
TTITLE3=Irrisch
EXTD=
EXTT0=
EXTT1=
EXTT2=
EXTT3=
PLAYORDER=
